<svg width="1359" height="303" viewBox="0 0 1359 303" fill="none" xmlns="http://www.w3.org/2000/svg">
<path d="M478.585 224.605C478.585 235.315 477.325 245.395 474.805 254.845C472.495 264.295 468.295 272.59 462.205 279.73C456.325 286.66 448.24 292.225 437.95 296.425C427.87 300.415 415.06 302.41 399.52 302.41C385.24 302.41 372.955 300.73 362.665 297.37C352.375 293.8 343.87 289.705 337.15 285.085L353.53 246.97C359.62 250.54 366.13 253.69 373.06 256.42C379.99 259.15 387.55 260.515 395.74 260.515C407.71 260.515 416.32 257.575 421.57 251.695C426.82 245.815 429.445 235.945 429.445 222.085V79.705H478.585V224.605ZM677.759 214.84C677.759 227.86 675.869 239.83 672.089 250.75C668.309 261.46 662.849 270.7 655.709 278.47C648.569 286.03 639.959 291.91 629.879 296.11C620.009 300.31 608.879 302.41 596.489 302.41C584.309 302.41 573.179 300.31 563.099 296.11C553.229 291.91 544.724 286.03 537.584 278.47C530.444 270.7 524.879 261.46 520.889 250.75C516.899 239.83 514.904 227.86 514.904 214.84C514.904 201.82 516.899 189.955 520.889 179.245C525.089 168.535 530.759 159.4 537.899 151.84C545.249 144.28 553.859 138.4 563.729 134.2C573.809 130 584.729 127.9 596.489 127.9C608.459 127.9 619.379 130 629.249 134.2C639.329 138.4 647.939 144.28 655.079 151.84C662.219 159.4 667.784 168.535 671.774 179.245C675.764 189.955 677.759 201.82 677.759 214.84ZM629.879 214.84C629.879 200.35 626.939 189.01 621.059 180.82C615.389 172.42 607.199 168.22 596.489 168.22C585.779 168.22 577.484 172.42 571.604 180.82C565.724 189.01 562.784 200.35 562.784 214.84C562.784 229.33 565.724 240.88 571.604 249.49C577.484 257.89 585.779 262.09 596.489 262.09C607.199 262.09 615.389 257.89 621.059 249.49C626.939 240.88 629.879 229.33 629.879 214.84ZM820.271 213.895C820.271 183.655 809.141 168.535 786.881 168.535C782.051 168.535 777.221 169.165 772.391 170.425C767.771 171.685 763.991 173.26 761.051 175.15V260.515C763.361 260.935 766.301 261.355 769.871 261.775C773.441 261.985 777.326 262.09 781.526 262.09C794.336 262.09 803.996 257.68 810.506 248.86C817.016 240.04 820.271 228.385 820.271 213.895ZM868.151 215.155C868.151 228.385 866.156 240.355 862.166 251.065C858.386 261.775 852.821 270.91 845.471 278.47C838.121 286.03 829.091 291.91 818.381 296.11C807.671 300.1 795.491 302.095 781.841 302.095C776.171 302.095 770.186 301.78 763.886 301.15C757.796 300.73 751.706 300.1 745.616 299.26C739.736 298.42 734.066 297.475 728.606 296.425C723.146 295.165 718.316 293.905 714.116 292.645V61.12L761.051 53.56V136.09C766.301 133.78 771.761 131.995 777.431 130.735C783.101 129.475 789.191 128.845 795.701 128.845C807.461 128.845 817.856 130.945 826.886 135.145C835.916 139.135 843.476 144.91 849.566 152.47C855.656 160.03 860.276 169.165 863.426 179.875C866.576 190.375 868.151 202.135 868.151 215.155ZM1059.2 214.84C1059.2 227.86 1057.31 239.83 1053.53 250.75C1049.75 261.46 1044.29 270.7 1037.15 278.47C1030.01 286.03 1021.4 291.91 1011.32 296.11C1001.45 300.31 990.324 302.41 977.934 302.41C965.754 302.41 954.624 300.31 944.544 296.11C934.674 291.91 926.169 286.03 919.029 278.47C911.889 270.7 906.324 261.46 902.334 250.75C898.344 239.83 896.349 227.86 896.349 214.84C896.349 201.82 898.344 189.955 902.334 179.245C906.534 168.535 912.204 159.4 919.344 151.84C926.694 144.28 935.304 138.4 945.174 134.2C955.254 130 966.174 127.9 977.934 127.9C989.904 127.9 1000.82 130 1010.69 134.2C1020.77 138.4 1029.38 144.28 1036.52 151.84C1043.66 159.4 1049.23 168.535 1053.22 179.245C1057.21 189.955 1059.2 201.82 1059.2 214.84ZM1011.32 214.84C1011.32 200.35 1008.38 189.01 1002.5 180.82C996.834 172.42 988.644 168.22 977.934 168.22C967.224 168.22 958.929 172.42 953.049 180.82C947.169 189.01 944.229 200.35 944.229 214.84C944.229 229.33 947.169 240.88 953.049 249.49C958.929 257.89 967.224 262.09 977.934 262.09C988.644 262.09 996.834 257.89 1002.5 249.49C1008.38 240.88 1011.32 229.33 1011.32 214.84ZM1142.5 298H1095.56V132.31H1142.5V298ZM1146.91 84.43C1146.91 93.04 1144.07 99.865 1138.4 104.905C1132.94 109.735 1126.43 112.15 1118.87 112.15C1111.31 112.15 1104.7 109.735 1099.03 104.905C1093.57 99.865 1090.84 93.04 1090.84 84.43C1090.84 75.82 1093.57 69.1 1099.03 64.27C1104.7 59.23 1111.31 56.71 1118.87 56.71C1126.43 56.71 1132.94 59.23 1138.4 64.27C1144.07 69.1 1146.91 75.82 1146.91 84.43ZM1226.62 213.895C1226.62 228.385 1229.88 240.04 1236.39 248.86C1242.9 257.68 1252.56 262.09 1265.37 262.09C1269.57 262.09 1273.45 261.985 1277.02 261.775C1280.59 261.355 1283.53 260.935 1285.84 260.515V175.15C1282.9 173.26 1279.02 171.685 1274.19 170.425C1269.57 169.165 1264.84 168.535 1260.01 168.535C1237.75 168.535 1226.62 183.655 1226.62 213.895ZM1332.78 292.645C1328.58 293.905 1323.75 295.165 1318.29 296.425C1312.83 297.475 1307.05 298.42 1300.96 299.26C1295.08 300.1 1288.99 300.73 1282.69 301.15C1276.6 301.78 1270.72 302.095 1265.05 302.095C1251.4 302.095 1239.22 300.1 1228.51 296.11C1217.8 292.12 1208.77 286.45 1201.42 279.1C1194.07 271.54 1188.4 262.51 1184.41 252.01C1180.63 241.3 1178.74 229.33 1178.74 216.1C1178.74 202.66 1180.42 190.585 1183.78 179.875C1187.14 168.955 1191.97 159.715 1198.27 152.155C1204.57 144.595 1212.24 138.82 1221.27 134.83C1230.51 130.84 1241.01 128.845 1252.77 128.845C1259.28 128.845 1265.05 129.475 1270.09 130.735C1275.34 131.995 1280.59 133.78 1285.84 136.09V61.12L1332.78 53.56V292.645Z" fill="black"/>
<g clip-path="url(#clip0)">
<path d="M213.145 163.277C210.994 160.182 207.484 157.864 205.304 158.105L182.278 160.643C180.099 160.884 180.077 163.587 182.228 166.684C182.694 167.357 183.229 167.997 183.794 168.577C185.841 170.666 188.362 172.042 190.069 171.853L213.093 169.315C215.277 169.074 215.296 166.371 213.145 163.277Z" fill="black"/>
<path d="M200.761 198.695C202.191 200.157 203.898 201.329 205.448 201.79L234.856 210.586C237.639 211.421 238.862 209.669 237.585 206.677C236.312 203.69 233.019 200.586 230.236 199.753L200.83 190.957C198.046 190.122 196.821 191.877 198.096 194.866C198.664 196.189 199.624 197.533 200.761 198.695Z" fill="black"/>
<path d="M242.474 238.173L210.23 219.103C207.176 217.296 204.906 217.878 205.149 220.409C205.316 222.102 206.574 224.239 208.306 226.013C209.151 226.877 210.12 227.655 211.125 228.252L243.37 247.324C246.421 249.129 248.696 248.544 248.448 246.018C248.207 243.49 245.533 239.978 242.474 238.173Z" fill="black"/>
<path d="M240.548 268.736L209.351 241.689C206.403 239.127 203.346 238.475 202.537 240.235C201.814 241.799 203.117 244.755 205.502 247.192C205.791 247.486 206.099 247.773 206.415 248.05L237.606 275.091C240.559 277.656 243.616 278.308 244.423 276.55C245.234 274.793 243.501 271.295 240.548 268.736Z" fill="black"/>
<path d="M198.299 255.991C195.802 252.978 192.34 251.173 190.568 251.948C188.794 252.724 189.384 255.785 191.881 258.794L218.259 290.553C218.529 290.883 218.808 291.191 219.1 291.489C221.487 293.927 224.415 295.29 225.995 294.6C227.767 293.827 227.179 290.761 224.682 287.755L198.299 255.991Z" fill="black"/>
<path d="M178.406 260.282C176.665 257.185 173.21 254.447 170.696 254.141C168.175 253.84 167.542 256.101 169.283 259.193L187.665 291.836C188.238 292.856 188.999 293.832 189.847 294.702C191.583 296.468 193.691 297.77 195.379 297.975C197.898 298.273 198.533 296.015 196.79 292.925L178.406 260.282Z" fill="black"/>
<path d="M152.075 254.043C151.299 251.24 148.267 247.883 145.306 246.543C142.343 245.204 140.567 246.395 141.341 249.191L149.509 278.781C149.941 280.342 151.073 282.073 152.503 283.532C153.639 284.692 154.964 285.681 156.275 286.275C159.24 287.617 161.012 286.426 160.243 283.63L152.075 254.043Z" fill="black"/>
<path d="M117.472 230.084C114.423 227.866 111.718 227.833 111.431 230.01L108.401 252.971C108.177 254.674 109.5 257.221 111.546 259.311C112.114 259.893 112.74 260.442 113.401 260.922C116.452 263.138 119.155 263.171 119.444 260.996L122.474 238.035C122.76 235.862 120.519 232.302 117.472 230.084Z" fill="black"/>
<path d="M83.1551 203.944L69.2927 217.517C67.9819 218.799 69.159 222.137 71.9286 224.957C74.6958 227.786 78.0026 229.033 79.3158 227.753L93.1782 214.179C94.4914 212.893 93.3119 209.557 90.5447 206.733C87.7774 203.908 84.4682 202.657 83.1551 203.944Z" fill="black"/>
<path d="M67.7718 179.318C65.623 176.231 62.1108 173.908 59.9285 174.149L36.905 176.687C34.7251 176.931 34.7036 179.629 36.8548 182.73C37.3204 183.401 37.8552 184.036 38.4259 184.619C40.472 186.708 42.991 188.085 44.6981 187.897L67.7216 185.356C69.9015 185.12 69.9254 182.412 67.7718 179.318Z" fill="black"/>
<path d="M51.9015 151.139C50.6265 148.147 47.334 145.046 44.5501 144.212L15.1445 135.417C12.3582 134.586 11.1381 136.336 12.4131 139.327C12.9766 140.653 13.9388 141.997 15.0753 143.157C16.5054 144.618 18.2126 145.788 19.7645 146.251L49.1725 155.047C51.9564 155.878 53.1765 154.128 51.9015 151.139Z" fill="black"/>
<path d="M44.8509 125.594C44.605 123.07 41.9285 119.558 38.8748 117.753L6.63035 98.6836C3.57662 96.8762 1.30363 97.4612 1.55194 99.9872C1.71668 101.682 2.97495 103.819 4.70595 105.591C5.55593 106.458 6.52052 107.236 7.5257 107.83L39.7701 126.9C42.8239 128.705 45.0992 128.12 44.8509 125.594Z" fill="black"/>
<path d="M9.4525 77.2655L40.644 104.315C43.5975 106.874 46.6512 107.528 47.4606 105.771C48.2724 104.016 46.539 100.516 43.5831 97.954L12.3892 70.9074C9.43817 68.3455 6.38444 67.6937 5.57266 69.4509C4.84922 71.0172 6.15046 73.973 8.53805 76.4084C8.82934 76.7044 9.13495 76.9885 9.4525 77.2655Z" fill="black"/>
<path d="M51.6985 90.0122C51.9707 90.3369 52.2501 90.6496 52.539 90.9433C54.9266 93.3811 57.8514 94.7468 59.4343 94.0567C61.2083 93.2832 60.621 90.2175 58.1212 87.2115L31.7383 55.4494C29.2385 52.441 25.7788 50.6312 24.0049 51.4072C22.2333 52.1808 22.8182 55.244 25.3156 58.2524L51.6985 90.0122Z" fill="black"/>
<path d="M71.5943 85.7198C72.1674 86.7393 72.9242 87.7206 73.7742 88.5873C75.5076 90.3565 77.6158 91.6601 79.3063 91.8631C81.8276 92.1615 82.4603 89.9004 80.7197 86.8085L62.3353 54.1654C60.5947 51.0734 57.1399 48.3277 54.6209 48.0269C52.102 47.726 51.4669 49.9871 53.2099 53.0766L71.5943 85.7198Z" fill="black"/>
<path d="M97.9271 91.9587C98.3593 93.5202 99.491 95.2536 100.921 96.7124C102.058 97.8728 103.383 98.8613 104.696 99.4534C107.659 100.795 109.435 99.6086 108.662 96.8079L100.494 67.2185C99.7178 64.4155 96.6903 61.0609 93.7273 59.7215C90.7643 58.3796 88.988 59.5663 89.7592 62.3669L97.9271 91.9587Z" fill="black"/>
<path d="M132.528 115.919C135.579 118.137 138.282 118.17 138.569 115.998L141.599 93.0337C141.885 90.8586 139.646 87.2987 136.597 85.0806C133.548 82.8649 130.842 82.8315 130.556 85.0042L127.526 107.968C127.304 109.67 128.624 112.22 130.668 114.309C131.239 114.892 131.864 115.439 132.528 115.919Z" fill="black"/>
<path d="M178.074 121.042C175.307 118.215 172 116.966 170.687 118.251L157.113 131.535L166.912 103.531C167.368 103.572 167.831 103.601 168.299 103.601C173.707 103.601 178.487 100.895 181.381 96.7768L211.438 113.347C211.037 114.746 210.81 116.219 210.81 117.745C210.81 126.562 217.982 133.734 226.8 133.734C235.615 133.734 242.787 126.562 242.787 117.745C242.787 108.927 235.615 101.755 226.8 101.755C222.077 101.755 217.844 103.823 214.912 107.084L184.074 90.0843C184.203 89.275 184.284 88.4536 184.284 87.6108C184.284 78.7934 177.112 71.6211 168.297 71.6211C159.482 71.6211 152.307 78.7934 152.307 87.6108C152.307 93.4294 155.439 98.5149 160.098 101.311L139.896 159.076C138.225 158.482 136.437 158.14 134.567 158.14C131.547 158.14 128.734 158.995 126.323 160.456L96.1317 135.926C96.8288 134.133 97.2252 132.192 97.2252 130.155C97.2252 121.338 90.0528 114.166 81.2355 114.166C72.4205 114.166 65.2458 121.338 65.2458 130.155C65.2458 138.973 72.4181 146.145 81.2355 146.145C85.4257 146.145 89.2315 144.512 92.0871 141.866L121.137 165.477C119.521 167.975 118.573 170.943 118.573 174.132C118.573 182.95 125.745 190.122 134.562 190.122C143.377 190.122 150.55 182.95 150.55 174.132C150.55 169.842 148.843 165.948 146.082 163.073L156.332 133.77C156.521 135.341 157.634 137.406 159.458 139.269C162.225 142.098 165.534 143.344 166.847 142.06L180.71 128.489C182.021 127.202 180.841 123.869 178.074 121.042ZM226.802 108.918C231.67 108.918 235.627 112.876 235.627 117.745C235.627 122.613 231.668 126.572 226.802 126.572C221.936 126.572 217.975 122.613 217.975 117.745C217.975 112.876 221.934 108.918 226.802 108.918ZM168.299 78.7839C173.167 78.7839 177.124 82.7425 177.124 87.6108C177.124 92.4791 173.165 96.4377 168.299 96.4377C163.433 96.4377 159.472 92.4791 159.472 87.6108C159.472 82.7425 163.433 78.7839 168.299 78.7839ZM72.4085 130.155C72.4085 125.287 76.3672 121.328 81.2355 121.328C86.1038 121.328 90.0624 125.287 90.0624 130.155C90.0624 135.024 86.1014 138.982 81.2355 138.982C76.3695 138.982 72.4085 135.024 72.4085 130.155ZM134.562 182.959C129.694 182.959 125.735 179.001 125.735 174.132C125.735 169.264 129.694 165.305 134.562 165.305C139.428 165.305 143.387 169.264 143.387 174.132C143.387 179.001 139.428 182.959 134.562 182.959Z" fill="black"/>
</g>
<defs>
<clipPath id="clip0">
<rect y="48" width="250" height="250" fill="white"/>
</clipPath>
</defs>
</svg>
